<svg xmlns="http://www.w3.org/2000/svg" width="56.719" height="71.649" viewBox="0 0 56.719 71.649">
  <g id="Android_" data-name="Android " transform="translate(-53.35 0)">
    <g id="Group_501" data-name="Group 501" transform="translate(65.291 26.871)">
      <g id="Group_500" data-name="Group 500" transform="translate(0)">
        <path id="Path_88" data-name="Path 88" d="M170.028,192.034H140.176a1.493,1.493,0,0,0-1.493,1.493v23.882a7.476,7.476,0,0,0,5.97,7.314v7.612a4.478,4.478,0,1,0,8.956,0v-7.463h2.985v7.463a4.478,4.478,0,1,0,8.956,0v-7.612a7.473,7.473,0,0,0,5.97-7.314V193.527A1.491,1.491,0,0,0,170.028,192.034Z" transform="translate(-138.683 -192.034)" fill="#777"/>
      </g>
    </g>
    <g id="Group_503" data-name="Group 503" transform="translate(65.291 -0.001)">
      <g id="Group_502" data-name="Group 502" transform="translate(0 0)">
        <path id="Path_89" data-name="Path 89" d="M162.915,7.954l2.517-5.872A1.492,1.492,0,0,0,162.688.909l-2.516,5.875a16.267,16.267,0,0,0-10.132,0L147.517.909a1.49,1.49,0,1,0-2.74,1.173l2.517,5.872a16.43,16.43,0,0,0-8.609,14.439,1.493,1.493,0,0,0,1.493,1.493h29.852a1.493,1.493,0,0,0,1.493-1.493A16.434,16.434,0,0,0,162.915,7.954Zm-13.783,9.962a1.493,1.493,0,1,1,1.493-1.493A1.493,1.493,0,0,1,149.132,17.915Zm11.941,0a1.493,1.493,0,1,1,1.493-1.493A1.493,1.493,0,0,1,161.073,17.915Z" transform="translate(-138.684 0.001)" fill="#777"/>
      </g>
    </g>
    <g id="Group_505" data-name="Group 505" transform="translate(101.113 26.871)">
      <g id="Group_504" data-name="Group 504">
        <path id="Path_90" data-name="Path 90" d="M399.162,192.034a4.483,4.483,0,0,0-4.478,4.478v14.926a4.478,4.478,0,1,0,8.956,0V196.512A4.483,4.483,0,0,0,399.162,192.034Z" transform="translate(-394.684 -192.034)" fill="#777"/>
      </g>
    </g>
    <g id="Group_507" data-name="Group 507" transform="translate(53.35 26.871)">
      <g id="Group_506" data-name="Group 506" transform="translate(0)">
        <path id="Path_91" data-name="Path 91" d="M57.828,192.034a4.483,4.483,0,0,0-4.478,4.478v14.926a4.478,4.478,0,1,0,8.956,0V196.512A4.483,4.483,0,0,0,57.828,192.034Z" transform="translate(-53.35 -192.034)" fill="#777"/>
      </g>
    </g>
  </g>
</svg>
