<svg xmlns="http://www.w3.org/2000/svg" width="64.187" height="68.182" viewBox="0 0 64.187 68.182">
  <g id="Angular_" data-name="Angular " transform="translate(-1194.193 -540.185)">
    <g id="Group_510" data-name="Group 510" transform="translate(1194.193 540.185)">
      <path id="Path_98" data-name="Path 98" d="M-1963.408,4776.082a6.438,6.438,0,0,1,1.4-.907c8.747-3.145,17.556-6.127,26.237-9.44a11.737,11.737,0,0,1,9.028.033c8.628,3.3,17.37,6.295,26.091,9.342a1.742,1.742,0,0,1,1.4,2.228q-2.278,19.162-4.417,38.342a4.327,4.327,0,0,1-2.5,3.826c-7.888,4.242-15.7,8.622-23.513,13.006a2.779,2.779,0,0,1-3.128.071q-12.073-6.819-24.243-13.462a2.9,2.9,0,0,1-1.7-2.485c-1.163-10.446-2.377-20.888-3.578-31.33C-1962.671,4782.395-1963.012,4779.485-1963.408,4776.082Zm32.15-4.086c-6.766,15.2-13.329,29.937-19.988,44.894,2.413,0,4.315.083,6.2-.05a2.224,2.224,0,0,0,1.591-1.069c1.1-2.459,2.085-4.972,3.021-7.5a1.858,1.858,0,0,1,2.076-1.485c4.769.1,9.542.086,14.312.029a1.657,1.657,0,0,1,1.842,1.3c.958,2.581,2,5.133,3.071,7.667.189.447.7,1.052,1.087,1.071,2.162.1,4.332.05,6.8.05Z" transform="translate(1963.408 -4764.848)" fill="#777"/>
      <path id="Path_99" data-name="Path 99" d="M-1887.363,4841.52l5.874-14.118,5.881,14.118Z" transform="translate(1913.612 -4805.81)" fill="#777"/>
    </g>
  </g>
</svg>
