<svg xmlns="http://www.w3.org/2000/svg" width="61.783" height="76.601" viewBox="0 0 61.783 76.601">
  <g id="Flutter_" data-name="Flutter " transform="translate(-444.313 -844.495)">
    <g id="Group_508" data-name="Group 508" transform="translate(444.313 844.496)">
      <path id="Path_94" data-name="Path 94" d="M-2393.142-189.406a3.463,3.463,0,0,0,.333-.259q4.628-4.611,9.253-9.226l26.323-26.253c.694-.693,1.4-1.381,2.084-2.08a.732.732,0,0,1,.567-.236q11.241.007,22.484,0c.106,0,.213.014.364.025a2.014,2.014,0,0,1-.142.214c-.84.935-49.329,49.359-49.587,49.515-.1-.1-.219-.2-.325-.3q-5.5-5.5-11-10.991a4.5,4.5,0,0,0-.352-.288Z" transform="translate(2393.142 227.46)" fill="#777"/>
      <path id="Path_95" data-name="Path 95" d="M-1768.093,969.7c-.164,0-.327.009-.49.009q-10.965,0-21.93.008a1.244,1.244,0,0,1-.967-.4q-4.25-4.251-8.525-8.477a18.4,18.4,0,0,1-1.823-1.673q-5-4.887-10-9.777c-.072-.07-.135-.148-.221-.243.107-.119.195-.228.293-.327l11.364-11.365q4.261-4.262,8.519-8.528a1.068,1.068,0,0,1,.829-.351q11.042.013,22.083.008c.147,0,.3.015.483.025a1.31,1.31,0,0,1-.114.193c-.082.092-.17.176-.257.263l-19.583,19.584c-.107.107-.207.221-.328.351.1.114.179.217.271.309l11.66,11.632q4.2,4.192,8.4,8.386c.108.107.226.206.338.308Z" transform="translate(1829.876 -893.117)" fill="#777"/>
    </g>
  </g>
</svg>
