<svg xmlns="http://www.w3.org/2000/svg" width="57.099" height="69.614" viewBox="0 0 57.099 69.614">
  <g id="IOS_" data-name="IOS " transform="translate(-695.506 -841.234)">
    <g id="apple" transform="translate(695.506 841.234)">
      <path id="Path_92" data-name="Path 92" d="M64.953,171.534c-10.361-.06-18.931-21.209-18.931-31.98,0-17.595,13.2-21.446,18.286-21.446a21.041,21.041,0,0,1,6.9,1.7,15.423,15.423,0,0,0,3.94,1.129,12.257,12.257,0,0,0,2.826-.916,22.651,22.651,0,0,1,8.518-2.059h.02c2.5,0,10.062.548,14.611,7.379l1.066,1.6-1.534,1.157c-2.191,1.653-6.188,4.668-6.188,10.642,0,7.074,4.527,9.8,6.7,11.1.96.578,1.954,1.173,1.954,2.476,0,.85-6.788,19.112-16.644,19.112a13.385,13.385,0,0,1-5.621-1.364,11.4,11.4,0,0,0-5-1.2,12.867,12.867,0,0,0-3.961,1.072,19.4,19.4,0,0,1-6.871,1.6Z" transform="translate(-46.022 -101.92)" fill="#777"/>
      <path id="Path_93" data-name="Path 93" d="M268.233,0c.257,9.256-6.363,15.677-12.975,15.275C254.169,7.888,261.869,0,268.233,0Z" transform="translate(-226.72)" fill="#777"/>
    </g>
  </g>
</svg>
