<svg xmlns="http://www.w3.org/2000/svg" width="80.817" height="80.817" viewBox="0 0 80.817 80.817">
  <g id="Laravel_" data-name="Laravel " transform="translate(-440.465 -240.465)">
    <path id="Path_114" data-name="Path 114" d="M-719.572,881.573a5.9,5.9,0,0,1-1.929-2.826q-3.857-9.887-7.691-19.783c-.3-.76-.6-1.518-.879-2.283-.174-.472-.437-.563-.915-.38q-6.437,2.472-12.887,4.907-1.768.669-3.557,1.284a2.526,2.526,0,0,1-3.014-.933,7.055,7.055,0,0,1-.929-1.9q-8.242-25.987-16.447-51.986c-.245-.776-.457-1.562-.685-2.343v-1.579a2.507,2.507,0,0,1,2.3-1.225q6.725-.758,13.448-1.533a4.936,4.936,0,0,0,.822-.241h2.367a24.615,24.615,0,0,1,1.668,2.9q9.318,22.651,18.574,45.327c.11.268.238.529.336.8a.671.671,0,0,0,.986.455q3.824-1.353,7.655-2.689,7.284-2.552,14.568-5.107c1.81-.638,1.61-.429.867-1.975q-3.639-7.571-7.3-15.131c-.695-1.44-.441-2.1,1.113-2.5,3.177-.819,6.374-1.565,9.563-2.34.51-.124,1.031-.213,1.53-.373a1.744,1.744,0,0,1,2.212.878c.885,1.491,1.739,3,2.581,4.519q3.772,6.791,7.526,13.592v.632a7.756,7.756,0,0,1-1.281.874c-1.254.536-2.543.992-3.814,1.488-2.053.8-4.1,1.623-6.16,2.408-.535.2-.627.487-.355.954.106.181.2.371.292.559q4.557,8.962,9.109,17.925c.915,1.81.772,2.365-.982,3.294q-11.032,5.847-22.1,11.634c-1.764.925-3.556,1.8-5.335,2.693ZM-751.2,804.111c-.8.081-1.432.131-2.058.21-3.52.443-7.038.9-10.557,1.339-.83.1-1.015.334-.758,1.145.438,1.378.911,2.746,1.366,4.119q7.512,22.656,15.022,45.313c.277.833.455.92,1.335.613q6.77-2.364,13.539-4.731c1.256-.438,1.341-.592.856-1.817q-6.334-15.993-12.675-31.984-2.661-6.712-5.324-13.422C-750.618,804.47-750.756,804.017-751.2,804.111Zm57.591,58.918c-.126-.348-.18-.554-.272-.74q-4.026-8.088-8.055-16.174a.792.792,0,0,0-1.151-.447c-1.542.6-3.091,1.18-4.637,1.769q-9.13,3.479-18.26,6.957c-.981.373-1,.382-.614,1.344q3.134,7.882,6.273,15.762c.409,1.025.816,2.054,1.282,3.054s.738,1.053,1.711.57q7.731-3.837,15.467-7.664,3.777-1.875,7.539-3.781A3.548,3.548,0,0,0-693.605,863.029Zm2.081-25.987c-.179-.387-.3-.678-.443-.953q-1.957-3.646-3.922-7.288c-.858-1.6-1.7-3.2-2.568-4.794-.237-.436-.478-.907-1.136-.73-2.888.777-5.776,1.556-8.67,2.311-.664.173-.794.5-.5,1.088q3.41,6.843,6.809,13.692c.2.411.431.6.926.419,2.934-1.069,5.878-2.106,8.81-3.179A2.847,2.847,0,0,0-691.524,837.042Z" transform="translate(1208.969 -560.291)" fill="#777"/>
  </g>
</svg>
