<svg xmlns="http://www.w3.org/2000/svg" width="58.161" height="65.709" viewBox="0 0 58.161 65.709">
  <g id="NodeJS_" data-name="NodeJS " transform="translate(-693.953 -240.65)">
    <g id="Group_515" data-name="Group 515" transform="translate(693.953 240.65)">
      <path id="Path_103" data-name="Path 103" d="M-1160.639,261.819c-3.771-1.513-6.995-3.96-10.515-5.9l.037-.369a10.539,10.539,0,0,0,2.322-1.007c1.5-1.132,2.755-.747,4.125.242,1.179.852,2.5,1.5,3.736,2.28a1.57,1.57,0,0,0,1.822.053c7.661-4.465,15.343-8.9,22.988-13.389a2.012,2.012,0,0,0,.852-1.455q.077-13.357,0-26.714a2.011,2.011,0,0,0-.852-1.456q-11.481-6.716-23.038-13.3a2.011,2.011,0,0,0-1.686.019q-11.556,6.587-23.038,13.3a1.9,1.9,0,0,0-.805,1.376q-.072,13.412,0,26.824a1.929,1.929,0,0,0,.8,1.377c1.98,1.237,4.02,2.378,6.053,3.526a5.991,5.991,0,0,0,1.418.564c2.522.656,4.388-.754,4.4-3.348.019-4.89.007-9.781.007-14.671,0-3.869,0-7.737,0-11.606,0-1.311.148-1.461,1.45-1.46,3.361,0,3.076-.339,3.077,3.035,0,8.138.018,16.277-.017,24.415a14.71,14.71,0,0,1-.415,3.571,5.826,5.826,0,0,1-4.74,4.473,10.37,10.37,0,0,1-7.388-1.261q-3.259-1.8-6.465-3.69a4.841,4.841,0,0,1-2.46-4.368c-.022-1.934-.014-3.868-.014-5.8,0-7.044.051-14.088-.026-21.13a5.978,5.978,0,0,1,3.332-5.776c7.455-4.238,14.848-8.585,22.272-12.878.753-.436,1.552-.792,2.331-1.185h2.19c.879.431,1.785.814,2.631,1.3,7.248,4.184,14.468,8.416,21.736,12.563a7.073,7.073,0,0,1,3.669,4.1v29.788a6.992,6.992,0,0,1-3.662,4.118c-6.943,3.957-13.828,8.016-20.762,11.988-1.283.735-2.7,1.242-4.05,1.854Z" transform="translate(1189.011 -196.11)" fill="#777"/>
      <path id="Path_104" data-name="Path 104" d="M-1067.841,312.759a17.536,17.536,0,0,1-7.4-1.117,7.629,7.629,0,0,1-5.087-6.785c-.123-1.369.118-1.632,1.46-1.658.182,0,.365,0,.547,0,2.113,0,2.122-.007,2.785,2.022a4.039,4.039,0,0,0,2.976,2.8,18.979,18.979,0,0,0,9.418.057,4.751,4.751,0,0,0,1.472-.7,3.015,3.015,0,0,0,1.234-3.078,2.129,2.129,0,0,0-1.812-1.823c-1.728-.435-3.482-.776-5.238-1.079-1.939-.334-3.9-.56-5.838-.877a10.119,10.119,0,0,1-1.783-.519c-2.368-.855-4.026-2.359-4.336-4.988a6.731,6.731,0,0,1,2.887-6.872,9.84,9.84,0,0,1,2.749-1.308,19.844,19.844,0,0,1,11.542.145c3.385,1.052,5.178,3.48,5.611,6.972.115.929-.179,1.411-1.157,1.371-.255-.01-.511,0-.766,0-2.086,0-2.093.007-2.882-1.882a4.094,4.094,0,0,0-2.72-2.511,15.3,15.3,0,0,0-8.211-.051,3.9,3.9,0,0,0-1.434.762,2.322,2.322,0,0,0,.741,4.119c2.141.568,4.361.836,6.543,1.252,2,.382,4.033.677,6,1.211,2.558.7,4.487,2.164,4.828,5.028.364,3.051-.48,5.644-3.1,7.459a12.958,12.958,0,0,1-6.393,2.036C-1066.085,312.824-1066.966,312.759-1067.841,312.759Z" transform="translate(1104.158 -266.346)" fill="#777"/>
    </g>
  </g>
</svg>
