<svg xmlns="http://www.w3.org/2000/svg" width="73.803" height="65.72" viewBox="0 0 73.803 65.72">
  <g id="React_" data-name="React " transform="translate(-1419.345 -522.134)">
    <g id="Group_509" data-name="Group 509" transform="translate(2258.364 -3147.262)">
      <path id="Path_96" data-name="Path 96" d="M-802.019,3727.088c-1.235,1.022-2.415,2.054-3.651,3.011a26.342,26.342,0,0,1-7.834,4.389,10.4,10.4,0,0,1-4.677.555,6.287,6.287,0,0,1-4.872-3.555,14.1,14.1,0,0,1-1.461-5.466,35.535,35.535,0,0,1,.906-10.793c.1-.469-.013-.634-.459-.774a34.906,34.906,0,0,1-10.193-4.854,13.648,13.648,0,0,1-3.546-3.584,6.407,6.407,0,0,1-.017-7.48,15.944,15.944,0,0,1,5.425-4.849,38.359,38.359,0,0,1,8.192-3.594c.2-.063.4-.133.627-.21-.193-1.008-.4-1.983-.563-2.966a27.963,27.963,0,0,1-.135-10.443,14.1,14.1,0,0,1,1.258-3.558c1.475-2.815,4.007-3.74,6.955-3.39a17.827,17.827,0,0,1,7.976,3.279c1.852,1.271,3.572,2.737,5.348,4.12.193.151.367.325.575.511.88-.753,1.729-1.513,2.613-2.23a28.247,28.247,0,0,1,8.777-5.16,10.489,10.489,0,0,1,4.354-.61,6.244,6.244,0,0,1,5,3.181,13.258,13.258,0,0,1,1.682,5.721,35.547,35.547,0,0,1-.9,11c-.095.436.017.577.416.7a35.281,35.281,0,0,1,10.114,4.779,13.773,13.773,0,0,1,3.7,3.722,6.414,6.414,0,0,1,0,7.436,14.8,14.8,0,0,1-4.481,4.265,36.015,36.015,0,0,1-9.181,4.2c-.489.153-.556.349-.452.82a37.569,37.569,0,0,1,.993,9.476,17.976,17.976,0,0,1-.826,5.033c-1.4,4.224-4.467,5.988-8.809,5.049a21.567,21.567,0,0,1-7.992-3.809c-1.5-1.075-2.892-2.3-4.331-3.455C-801.677,3727.4-801.855,3727.23-802.019,3727.088Zm.415-36.909c-2.089.094-4.516.195-6.94.33a.944.944,0,0,0-.615.385A79.458,79.458,0,0,0-815.5,3701.9a.857.857,0,0,0,.02.831,84.546,84.546,0,0,0,5.943,10.39,1.918,1.918,0,0,0,1.658,1,85.2,85.2,0,0,0,12.24-.085.841.841,0,0,0,.536-.338,78.114,78.114,0,0,0,6.4-11.159.773.773,0,0,0,.005-.581,76.759,76.759,0,0,0-6.464-11.18.763.763,0,0,0-.509-.284C-797.535,3690.383-799.4,3690.292-801.6,3690.179Zm20.128,21.226a33.161,33.161,0,0,0,9.372-4.369,10.145,10.145,0,0,0,3.138-3.23,2.983,2.983,0,0,0,0-3.112,9.6,9.6,0,0,0-2.722-2.909,31.026,31.026,0,0,0-9.1-4.451c-.242-.08-.488-.148-.725-.219a2.194,2.194,0,0,0-.1.195c-1.05,2.871-2.1,5.739-3.138,8.615a1.062,1.062,0,0,0,.036.684c.617,1.59,1.286,3.159,1.882,4.756C-782.351,3708.676-781.94,3710.02-781.475,3711.4Zm-23.008,13.346c-.085-.112-.125-.17-.169-.223-1.956-2.352-3.907-4.709-5.88-7.047a1.233,1.233,0,0,0-.71-.347c-1.856-.3-3.721-.543-5.575-.851-1.155-.192-2.3-.465-3.45-.7a1.3,1.3,0,0,0-.095.218,33.63,33.63,0,0,0-.87,9.844,11.528,11.528,0,0,0,1.027,4.174,3.279,3.279,0,0,0,3.456,1.982,7.993,7.993,0,0,0,1.042-.146,16.733,16.733,0,0,0,5.564-2.453A38.227,38.227,0,0,0-804.483,3724.75Zm4.72-45c.094.124.134.18.178.232q2.936,3.527,5.88,7.045a.982.982,0,0,0,.55.316c2.2.359,4.409.683,6.61,1.047.861.143,1.709.362,2.568.548a1.125,1.125,0,0,0,.11-.221,31.913,31.913,0,0,0,.765-10.733,9.35,9.35,0,0,0-1.185-3.741,2.874,2.874,0,0,0-2.615-1.5,8.816,8.816,0,0,0-2.286.291C-793.344,3674.246-796.573,3676.931-799.763,3679.752Zm-23,13.358a32.405,32.405,0,0,0-9.755,4.653,9.649,9.649,0,0,0-2.727,2.9,2.87,2.87,0,0,0,.03,3.193,11.4,11.4,0,0,0,1.634,1.984,20.035,20.035,0,0,0,5.824,3.662c1.635.715,3.318,1.321,5,1.983.084-.186.123-.261.152-.34,1.046-2.852,2.1-5.7,3.126-8.561a1.065,1.065,0,0,0-.039-.683c-.653-1.687-1.356-3.357-1.99-5.051C-821.969,3695.642-822.341,3694.4-822.767,3693.111Zm18.216-13.287a1.206,1.206,0,0,0-.114-.159,34.523,34.523,0,0,0-7.5-5.424,12.086,12.086,0,0,0-4.592-1.453,3.223,3.223,0,0,0-3.534,2.007,11.065,11.065,0,0,0-.961,3.759,29.6,29.6,0,0,0,.454,8.19c.128.735.3,1.463.451,2.2.143-.013.213-.014.281-.025,2.992-.518,5.986-1.03,8.975-1.568a1.159,1.159,0,0,0,.615-.4c1.678-2.034,3.338-4.084,5.01-6.123C-805.182,3680.476-804.857,3680.156-804.551,3679.824Zm4.919,44.916a1.757,1.757,0,0,0,.166.187,37.2,37.2,0,0,0,5.956,4.531,15.537,15.537,0,0,0,5.548,2.213c2.1.331,3.352-.311,4.156-2.278a12.161,12.161,0,0,0,.7-2.532,23.8,23.8,0,0,0-.024-7.153c-.184-1.389-.466-2.764-.707-4.167-.189.03-.29.045-.39.063-2.96.507-5.922,1.01-8.879,1.533a1.066,1.066,0,0,0-.591.356c-.51.627-.959,1.3-1.475,1.929C-796.645,3721.2-798.134,3722.954-799.632,3724.74Zm-6.729-37.792h8.448l-4.252-4.891Zm4.278,35.514,4.189-4.88h-8.425Zm15.324-16.176-4.162,7.265,6.259-1.219Zm-30.731-8.059c1.42-2.474,2.765-4.817,4.164-7.253l-6.255,1.2Zm26.551-7.262,4.18,7.195,2.051-5.988Zm-26.549,15.393-2.053,5.99,6.231,1.194Z" transform="translate(0 0)" fill="#777"/>
      <path id="Path_97" data-name="Path 97" d="M-547.931,3929.117a6.83,6.83,0,0,1-6.836-6.91,6.871,6.871,0,0,1,6.847-6.809,6.88,6.88,0,0,1,6.869,6.9A6.845,6.845,0,0,1-547.931,3929.117Z" transform="translate(-254.218 -220.009)" fill="#777"/>
    </g>
  </g>
</svg>
