<svg xmlns="http://www.w3.org/2000/svg" width="76.207" height="76.207" viewBox="0 0 76.207 76.207">
  <g id="Wordpress_" data-name="Wordpress " transform="translate(-943.436 -239.131)">
    <g id="Group_516" data-name="Group 516" transform="translate(943.436 239.131)">
      <path id="Path_108" data-name="Path 108" d="M-870.08-320.99h-4.093a3.683,3.683,0,0,0-.366-.056,35.631,35.631,0,0,1-7.51-1.228,37.822,37.822,0,0,1-21.136-14.7,37.132,37.132,0,0,1-6.8-17.376c-.114-.909-.187-1.823-.279-2.734v-4.093c.043-.418.094-.836.128-1.255a36.092,36.092,0,0,1,2.269-10.016A37.959,37.959,0,0,1-890.317-392.6a36.672,36.672,0,0,1,13.447-4.319c.872-.106,1.748-.184,2.623-.274h4.168a3.629,3.629,0,0,0,.365.058,35.544,35.544,0,0,1,6.247.921,37.755,37.755,0,0,1,21.116,13.4,37.29,37.29,0,0,1,8.016,18.98c.112.884.185,1.773.276,2.66v4.167c-.019.122-.043.243-.058.366-.189,1.524-.289,3.066-.58,4.571a37.585,37.585,0,0,1-13.685,22.743,37.237,37.237,0,0,1-19.037,8.064C-868.3-321.153-869.194-321.081-870.08-320.99Zm-2.068-74.422a36.318,36.318,0,0,0-36.334,36.265,36.319,36.319,0,0,0,36.3,36.373,36.318,36.318,0,0,0,36.333-36.267A36.313,36.313,0,0,0-872.148-395.412Z" transform="translate(910.268 397.197)" fill="#777"/>
      <path id="Path_109" data-name="Path 109" d="M-764.7-310.132c5.4-7.766,12.7-12.7,22.113-14.17,10.256-1.6,19.29,1.237,27.109,7.98-.007.049-.013.1-.02.145a2.066,2.066,0,0,1-.3.044,5.581,5.581,0,0,0-5.409,5.147,7.567,7.567,0,0,0,.814,4.143c.58,1.163,1.233,2.293,1.909,3.4a20.982,20.982,0,0,1,2.868,6.781,16.077,16.077,0,0,1-.495,7.793c-1.542,5.233-3.124,10.455-4.69,15.681-.084.281-.17.561-.256.841l-.121.008-11.773-35.019c.7-.058,1.322-.108,1.946-.163.593-.052,1.187-.094,1.777-.17a1.312,1.312,0,0,0,1.169-1.739,1.18,1.18,0,0,0-1.258-.894c-.978.037-1.955.116-2.932.178a75.577,75.577,0,0,1-8.883.134c-1.869-.1-3.736-.23-5.606-.311a1.3,1.3,0,0,0-1.321,1.729,1.163,1.163,0,0,0,1.073.89c.862.1,1.727.172,2.59.254a2.162,2.162,0,0,0,.3.011.762.762,0,0,1,.832.607q2.335,6.474,4.715,12.932a1.425,1.425,0,0,1,.012,1q-3.406,10.177-6.8,20.36c-.049.148-.112.291-.213.551-.108-.258-.18-.405-.232-.56q-4.167-12.394-8.331-24.79-1.576-4.69-3.157-9.378c-.024-.07-.042-.143-.072-.211-.13-.3-.067-.456.293-.479.8-.051,1.606-.123,2.409-.2a8.4,8.4,0,0,0,1.1-.142,1.253,1.253,0,0,0,.98-1.486,1.188,1.188,0,0,0-1.278-1.1c-1.412.061-2.82.2-4.232.242-2.105.068-4.213.086-6.319.122a1.369,1.369,0,0,1-.25-.041Z" transform="translate(775.529 330.131)" fill="#777"/>
      <path id="Path_110" data-name="Path 110" d="M-511.927,155.039c.073.182.15.362.218.546q4.829,13.223,9.656,26.446c.051.14.1.28.159.417.185.447.187.449-.288.607a32.59,32.59,0,0,1-13.534,1.53,32.311,32.311,0,0,1-5.621-1.047c-.469-.13-.48-.145-.319-.614q4.742-13.786,9.488-27.571c.039-.112.094-.218.142-.326Z" transform="translate(550.664 -113.93)" fill="#777"/>
      <path id="Path_111" data-name="Path 111" d="M-835.3-62.347l15.5,42.454-.141.1a32.285,32.285,0,0,1-15.741-16.784,32.376,32.376,0,0,1,.2-25.743Z" transform="translate(843.617 87.267)" fill="#777"/>
      <path id="Path_112" data-name="Path 112" d="M-164.32-93.493a32.442,32.442,0,0,1,2.027,26.269A32.246,32.246,0,0,1-176.551-49.8l-.12-.066c.047-.17.084-.344.141-.51q4.01-11.6,8.025-23.2c.937-2.706,1.927-5.395,2.823-8.114a27.273,27.273,0,0,0,1.375-9.708c-.028-.69-.1-1.379-.151-2.069Z" transform="translate(231.266 116.095)" fill="#777"/>
    </g>
  </g>
</svg>
